<?xml version="1.0" standalone="no"?>
<!DOCTYPE svg PUBLIC "-//W3C//DTD SVG 20010904//EN"
 "http://www.w3.org/TR/2001/REC-SVG-20010904/DTD/svg10.dtd">
<svg version="1.0" xmlns="http://www.w3.org/2000/svg"
 width="256.000000pt" height="256.000000pt" viewBox="0 0 256.000000 256.000000"
 preserveAspectRatio="xMidYMid meet">
<metadata>
Created by potrace 1.14, written by Peter Selinger 2001-2017
</metadata>
<g transform="translate(0.000000,256.000000) scale(0.100000,-0.100000)"
fill="#000000" stroke="none">
<path d="M1238 2541 c3 -9 1 -12 -6 -7 -15 9 -3 -25 12 -37 6 -5 1 -7 -12 -4
-23 5 -23 5 -7 -13 17 -19 16 -19 -6 -15 -22 4 -23 3 -6 -9 17 -13 16 -14 -3
-19 -15 -4 -18 -10 -13 -24 6 -16 5 -17 -12 -3 -17 14 -18 14 -5 -10 12 -23
12 -24 -3 -11 -12 9 -17 10 -17 2 0 -7 -5 -9 -10 -6 -6 4 -8 12 -4 18 3 7 -3
1 -14 -12 l-19 -24 -15 22 c-12 16 -17 19 -21 9 -4 -10 -8 -10 -16 2 -10 13
-11 13 -11 0 0 -12 -2 -13 -9 -1 -7 11 -9 11 -14 0 -5 -12 -6 -12 -6 0 -1 11
-4 11 -16 1 -12 -10 -15 -9 -15 4 0 14 -4 15 -20 6 -16 -9 -20 -8 -20 5 0 8
-5 15 -11 15 -5 0 -8 -4 -5 -9 3 -5 -12 -8 -33 -8 -22 1 -38 5 -35 9 3 4 0 8
-5 8 -6 0 -11 -4 -11 -10 0 -5 -14 -10 -30 -10 -18 0 -33 -6 -36 -15 -4 -11
-11 -12 -24 -5 -14 8 -17 5 -14 -16 2 -21 0 -23 -12 -13 -12 10 -15 10 -12 -2
2 -8 -3 -13 -9 -12 -7 2 -15 -8 -19 -22 -4 -15 -11 -22 -18 -18 -6 4 -5 -1 3
-10 9 -11 10 -17 2 -17 -6 0 -11 -5 -11 -11 0 -5 6 -7 13 -3 6 4 2 -3 -11 -15
-12 -12 -22 -31 -22 -41 0 -11 -5 -20 -11 -20 -5 0 -7 6 -3 13 4 6 3 8 -1 4
-9 -7 -13 -23 -17 -59 -1 -9 -6 -15 -10 -12 -4 3 -4 12 -1 22 4 13 2 13 -10
-3 -10 -13 -12 -24 -6 -32 7 -7 6 -13 0 -17 -6 -4 -8 -14 -5 -24 5 -14 4 -14
-4 -2 -8 10 -7 19 1 30 11 13 10 13 -5 1 -10 -7 -18 -18 -18 -24 0 -5 -8 -16
-17 -24 -11 -8 -12 -11 -3 -7 13 7 13 6 0 -12 -8 -10 -19 -22 -25 -26 -6 -5
-5 -8 3 -8 6 0 12 -4 12 -10 0 -5 -7 -10 -15 -10 -8 0 -15 -5 -15 -11 0 -5 5
-7 10 -4 6 3 10 1 10 -4 0 -6 -4 -11 -8 -11 -8 0 -10 -6 -14 -49 -2 -16 -5
-18 -18 -8 -8 6 -12 7 -8 3 4 -5 2 -16 -5 -24 -9 -13 -9 -14 1 -8 6 4 12 2 12
-3 0 -6 -5 -11 -10 -11 -7 0 -7 -7 1 -21 9 -17 8 -20 -2 -14 -9 6 -10 3 -5
-10 5 -15 4 -16 -8 -6 -13 11 -14 8 -6 -19 7 -25 7 -30 -4 -21 -9 8 -13 7 -13
-4 0 -8 4 -15 9 -15 5 0 6 -5 3 -10 -4 -6 -10 -8 -14 -6 -4 3 -6 -21 -5 -52 0
-32 -4 -60 -10 -64 -7 -5 -4 -8 8 -8 13 0 17 -5 13 -20 -4 -14 0 -20 11 -20
14 -1 14 -3 -3 -16 -20 -16 -20 -16 2 -9 18 5 22 3 17 -9 -4 -9 0 -18 10 -22
9 -3 14 -9 12 -13 -2 -3 7 -7 20 -7 14 -1 21 2 17 9 -4 6 -1 7 6 3 7 -5 10
-11 7 -14 -13 -12 16 -29 44 -26 23 3 30 0 30 -14 0 -10 3 -13 8 -7 10 15 31
12 42 -5 8 -12 10 -10 10 10 1 25 1 25 10 3 11 -27 23 -31 13 -5 -4 10 8 3 30
-17 20 -19 34 -38 31 -43 -3 -4 2 -5 10 -2 9 3 13 11 9 17 -3 6 -1 7 5 3 6 -3
9 -15 7 -25 -2 -10 3 -18 10 -18 8 0 12 5 8 11 -3 6 6 -2 19 -18 18 -22 27
-26 33 -17 6 11 9 10 16 0 7 -12 9 -11 10 1 0 8 4 4 8 -9 3 -13 14 -25 23 -27
11 -1 15 3 11 13 -5 12 -7 12 -14 1 -6 -9 -9 -9 -9 -1 0 6 4 14 8 17 10 6 43
-30 35 -38 -4 -3 2 -6 11 -6 13 0 16 -5 12 -16 -5 -13 -3 -14 7 -6 10 8 13 6
13 -8 0 -10 -5 -16 -10 -13 -5 4 -6 1 -2 -6 5 -7 14 -10 20 -8 14 6 15 -21 1
-42 -5 -10 -4 -12 3 -7 7 4 12 2 12 -4 0 -6 6 -8 13 -4 6 4 4 -2 -6 -13 -12
-14 -15 -23 -8 -28 15 -9 14 -35 -1 -31 -7 1 -10 1 -5 -1 4 -3 7 -12 7 -20 0
-13 -2 -13 -17 -2 -15 13 -15 12 -5 -8 11 -20 10 -21 -9 -18 -16 3 -18 1 -10
-9 8 -9 7 -13 -4 -14 -8 -1 -22 -3 -29 -4 -12 -1 -13 -6 -5 -20 10 -18 9 -18
-12 -8 -18 10 -24 9 -31 -4 -5 -9 -13 -14 -17 -12 -4 3 -7 -5 -7 -17 1 -18 -4
-22 -27 -21 -23 1 -25 -1 -15 -14 11 -13 11 -14 0 -8 -7 4 -18 3 -25 -3 -7 -5
-35 -10 -62 -11 -75 -2 -94 -4 -93 -10 1 -18 -4 -21 -17 -10 -13 11 -14 10 -9
-4 7 -18 -6 -22 -22 -6 -7 7 -11 6 -11 -4 0 -8 5 -12 11 -9 6 4 5 -1 -3 -10
-7 -9 -17 -14 -22 -11 -5 3 -9 -1 -9 -9 0 -8 -11 -26 -25 -41 -14 -15 -23 -32
-20 -37 3 -5 0 -6 -8 -3 -8 3 -20 -3 -28 -12 -8 -10 -9 -15 -3 -11 7 4 18 -1
25 -10 10 -12 10 -14 2 -9 -7 4 -23 0 -35 -8 -12 -9 -18 -16 -12 -16 5 0 15 5
22 12 7 7 12 9 12 5 0 -3 -9 -15 -21 -26 -15 -14 -17 -21 -8 -26 8 -6 10 -4 4
5 -5 9 -4 11 4 6 6 -4 9 -12 5 -17 -3 -5 -10 -6 -16 -3 -7 5 -9 0 -6 -13 5
-17 1 -21 -17 -18 -18 1 -22 -2 -20 -16 3 -15 0 -17 -21 -8 -34 12 -41 11 -22
-3 15 -12 14 -15 -4 -33 l-21 -20 12 23 c8 14 8 22 1 22 -5 0 -10 -5 -10 -11
0 -5 -4 -8 -9 -4 -6 3 -8 -8 -6 -25 2 -17 1 -28 -4 -26 -15 9 -5 -32 12 -48
21 -22 22 -33 2 -16 -13 11 -14 10 -9 -4 3 -9 14 -16 23 -16 14 0 14 -2 1 -10
-13 -8 -13 -10 1 -10 15 0 30 -20 33 -42 1 -3 4 -10 8 -14 4 -4 3 -13 -3 -21
-9 -10 -8 -18 5 -31 9 -10 16 -22 16 -27 0 -4 -9 4 -21 19 -11 14 -26 26 -32
25 -8 0 -8 -2 1 -6 6 -2 10 -9 6 -14 -3 -5 0 -8 8 -7 7 2 12 -5 12 -15 -1 -10
0 -16 3 -13 3 2 15 -7 27 -21 17 -20 25 -23 31 -13 6 9 4 11 -5 5 -8 -5 -11
-4 -7 2 7 11 28 10 64 -2 13 -4 20 -11 17 -17 -3 -5 -12 -4 -20 3 -18 15 -18
2 0 -16 12 -12 15 -12 20 1 3 8 10 13 15 10 5 -3 4 5 -2 18 -6 13 -16 23 -22
21 -5 -1 -7 0 -3 2 4 2 4 11 1 19 -6 16 12 19 22 4 4 -6 10 -8 15 -5 5 3 12 0
16 -6 4 -7 3 -9 -4 -5 -13 8 -23 -6 -14 -21 4 -7 17 0 33 18 25 27 26 42 2 18
-7 -7 -12 -6 -17 6 -3 9 -2 13 3 10 5 -3 12 -1 16 5 3 5 1 10 -4 10 -6 0 -11
9 -11 21 0 12 4 17 11 14 6 -4 5 2 -2 13 -7 12 -18 18 -24 15 -5 -4 -2 3 8 14
9 11 14 24 10 28 -5 5 1 3 11 -5 13 -10 17 -10 12 -3 -4 8 -2 13 6 13 9 0 9 3
-2 10 -13 9 -13 11 0 20 11 7 11 10 2 10 -7 0 -10 5 -7 10 4 6 11 8 16 5 5 -4
9 -1 9 4 0 6 -7 11 -15 11 -9 0 -12 6 -9 15 4 8 10 13 14 10 5 -3 12 0 16 6 4
8 3 9 -4 5 -7 -4 -12 -1 -12 9 0 10 -5 14 -13 9 -9 -6 -9 -4 0 7 17 17 17 32
1 24 -7 -4 -4 1 6 9 20 16 33 51 15 41 -5 -4 -6 1 -3 9 3 9 11 13 17 9 6 -4 8
0 4 10 -5 12 -1 17 12 17 24 0 45 25 35 42 -5 8 -1 8 11 -2 10 -8 16 -10 12
-3 -5 7 2 15 15 19 39 13 49 13 55 -2 3 -8 9 -14 15 -14 5 0 6 6 2 13 -6 9 -4
9 8 -1 9 -7 18 -9 20 -5 3 4 3 3 2 -4 -2 -6 5 -17 13 -25 15 -11 16 -11 10 5
-4 11 -3 16 3 12 6 -3 10 -13 10 -21 0 -8 10 -14 23 -14 25 -1 60 -24 50 -33
-3 -4 -1 -7 5 -7 7 0 12 6 12 13 1 6 6 2 13 -11 10 -17 16 -19 25 -10 9 9 11
6 7 -13 -4 -23 -4 -23 11 -4 15 20 15 19 20 -2 4 -12 12 -19 19 -17 7 3 16 0
21 -7 4 -8 3 -10 -4 -5 -7 4 -12 1 -12 -9 0 -9 4 -13 10 -10 6 3 7 -1 4 -9 -3
-9 -11 -16 -16 -16 -7 0 -6 -5 1 -14 8 -10 8 -16 -3 -25 -11 -9 -16 -9 -22 0
-5 8 -3 9 6 4 9 -5 11 -4 6 4 -10 15 -26 4 -26 -17 -1 -15 -3 -14 -17 3 -14
18 -15 18 -9 1 5 -14 2 -17 -9 -12 -8 3 -15 1 -15 -4 0 -5 -10 -7 -22 -5 -21
4 -21 3 -6 -9 16 -12 16 -13 -3 -26 -20 -15 -27 -36 -7 -24 7 5 8 3 4 -5 -5
-7 -15 -10 -23 -6 -13 4 -14 3 -4 -9 8 -10 9 -16 1 -21 -6 -3 -8 -10 -6 -14 3
-4 1 -13 -4 -21 -5 -8 -4 -22 1 -32 5 -10 6 -18 2 -17 -20 3 -27 -2 -13 -12
12 -8 10 -10 -10 -5 -22 4 -23 4 -7 -8 22 -17 22 -30 1 -22 -14 5 -15 4 -4 -9
7 -8 9 -15 5 -15 -4 0 -2 -7 5 -15 11 -13 10 -14 -5 -9 -15 6 -16 4 -6 -14 7
-12 9 -22 5 -22 -3 0 -1 -7 6 -15 11 -13 10 -14 -6 -8 -16 6 -17 4 -7 -9 7 -8
9 -19 5 -24 -4 -4 2 -2 12 6 18 14 19 14 7 -7 -9 -18 -9 -23 1 -23 9 0 9 -3
-2 -10 -8 -5 -10 -10 -4 -10 7 0 15 -7 18 -16 3 -8 2 -12 -3 -9 -5 3 -12 1
-15 -4 -9 -14 32 -21 127 -21 62 0 93 4 102 14 8 7 11 17 7 22 -4 5 0 3 9 -4
14 -10 16 -9 14 10 -1 24 41 73 50 58 3 -4 -2 -10 -9 -13 -8 -3 -20 -15 -26
-26 -8 -17 -8 -20 4 -15 9 3 14 9 13 14 -1 4 9 17 23 29 14 13 18 19 10 15
-10 -5 -9 0 4 14 19 21 32 30 22 14 -2 -4 4 -8 14 -8 18 0 18 1 2 20 -11 12
-12 16 -3 11 24 -14 80 -13 74 1 -5 13 9 13 39 0 9 -4 22 -5 27 -1 7 4 8 -1 4
-11 -5 -13 -3 -16 10 -11 9 3 17 2 17 -3 0 -6 -5 -10 -12 -10 -6 0 -8 -3 -5
-6 4 -4 14 -1 24 7 9 8 14 9 10 3 -4 -7 0 -15 9 -18 8 -3 12 -2 9 4 -3 6 1 7
9 4 9 -3 13 -10 10 -15 -8 -14 60 -11 76 3 12 11 12 10 1 -5 -8 -9 -11 -20 -7
-24 3 -4 13 2 21 13 10 12 13 13 10 3 -4 -11 1 -15 20 -15 16 0 25 6 25 16 1
12 4 11 15 -4 11 -14 15 -16 15 -5 0 10 11 14 41 12 26 0 42 4 46 13 3 8 10
11 17 7 6 -4 4 2 -4 12 -11 14 -11 17 -1 11 10 -7 12 -3 6 14 -4 12 -3 20 1
18 5 -3 17 3 27 14 9 10 14 18 11 18 -4 0 -1 6 5 13 8 10 7 14 -4 14 -8 0 -11
-5 -8 -10 4 -6 1 -7 -6 -3 -9 6 -9 12 2 24 15 18 20 55 6 46 -5 -2 -5 -12 -2
-22 4 -13 2 -13 -10 3 -12 15 -13 23 -4 34 10 12 8 13 -11 9 -19 -5 -21 -4
-11 8 18 22 -7 47 -33 33 -27 -15 -60 -20 -53 -8 4 5 10 7 15 4 5 -3 12 0 16
7 4 7 4 10 -1 6 -4 -4 -15 -2 -23 5 -13 9 -14 9 -8 0 10 -18 -12 -16 -31 2 -8
8 -20 12 -26 8 -9 -5 -9 -3 0 8 9 11 8 18 -3 33 -7 10 -11 23 -7 29 3 6 1 7
-6 3 -9 -6 -8 -14 4 -34 l16 -27 -19 22 c-13 15 -18 31 -14 45 4 15 2 19 -7
13 -10 -6 -11 -3 -1 15 10 20 10 22 -3 17 -19 -7 -17 14 3 39 8 10 10 15 5 12
-6 -4 -11 2 -11 12 0 15 3 17 15 7 12 -10 13 -9 3 9 -6 12 -9 24 -5 27 3 4 0
13 -6 21 -9 10 -9 16 -1 21 6 4 9 14 6 22 -3 8 -1 11 4 8 7 -4 9 5 5 24 -3 19
-1 31 5 31 6 0 8 -5 4 -12 -5 -7 -3 -8 5 -4 7 5 10 14 7 22 -4 10 4 14 29 14
26 0 35 4 36 18 0 13 3 11 10 -6 7 -19 29 -23 29 -6 0 3 -6 2 -12 -2 -9 -5 -9
-2 1 9 14 18 26 23 16 8 -3 -5 -1 -12 5 -16 5 -3 10 0 10 7 0 9 3 9 10 -2 8
-13 10 -13 10 -1 0 11 4 9 14 -5 8 -10 18 -16 22 -11 4 4 2 7 -4 7 -7 0 -12 4
-12 8 0 5 7 9 15 9 8 0 15 -4 15 -9 0 -4 5 -8 11 -8 5 0 7 5 4 10 -3 6 -1 10
4 10 6 0 11 -6 11 -12 0 -10 3 -9 9 1 7 11 11 10 21 -5 9 -15 10 -15 6 -2 -2
9 3 22 12 30 15 11 15 11 5 -3 -13 -16 -8 -29 9 -29 5 0 6 6 2 13 -5 7 0 6 11
-3 17 -13 18 -13 13 1 -5 13 -2 16 13 12 10 -3 16 -9 13 -14 -3 -5 -1 -9 5 -9
5 0 12 6 14 13 3 6 6 3 6 -8 1 -16 3 -17 10 -5 6 8 7 18 4 24 -3 5 -1 6 6 2 6
-4 8 -12 5 -18 -5 -8 -1 -9 11 -4 16 6 16 4 4 -10 -13 -16 -12 -16 10 -5 19
11 22 11 16 0 -6 -9 -3 -11 9 -6 14 5 15 3 6 -13 -9 -16 -8 -18 6 -13 13 5 15
3 9 -7 -5 -8 -4 -11 3 -6 6 4 9 14 6 24 -2 9 1 7 7 -5 7 -13 18 -23 26 -23 7
0 22 -9 33 -20 22 -22 35 -27 24 -8 -4 7 -3 8 4 4 6 -4 9 -13 6 -20 -3 -8 0
-17 7 -22 8 -5 10 -3 4 6 -5 9 -4 11 4 6 9 -6 9 -11 0 -22 -10 -12 -9 -13 6
-8 15 6 16 4 5 -15 -11 -21 -10 -22 8 -12 18 9 19 8 14 -11 -4 -16 -2 -19 9
-13 11 6 12 5 2 -5 -10 -11 -9 -16 5 -27 16 -14 16 -14 -2 -9 -16 6 -17 4 -6
-9 7 -8 17 -12 24 -8 6 3 1 -5 -12 -19 -15 -17 -20 -28 -13 -33 11 -6 15 1 12
18 -1 5 3 6 8 2 13 -7 4 -32 -14 -39 -9 -3 -12 -16 -10 -36 3 -21 1 -28 -7
-24 -8 5 -9 2 -5 -9 4 -12 1 -17 -10 -17 -13 0 -13 -3 -2 -17 7 -10 9 -15 5
-11 -12 11 -48 -50 -39 -65 4 -7 -2 -5 -13 3 -10 8 -16 10 -12 6 4 -5 3 -15
-3 -22 -9 -11 -7 -15 5 -20 15 -6 15 -8 -1 -20 -17 -12 -17 -13 3 -9 17 3 20
-1 17 -20 -3 -12 1 -26 7 -30 9 -5 10 -1 5 16 -3 13 -3 19 2 14 16 -20 58 -42
76 -39 11 1 16 -1 12 -4 -4 -4 -12 -7 -18 -7 -5 0 -12 -7 -14 -15 -3 -9 -1
-11 4 -5 4 6 19 11 33 10 19 0 24 -5 23 -20 -1 -11 0 -14 3 -7 3 6 10 12 15
12 6 0 8 -4 5 -8 -2 -4 4 -14 16 -21 11 -7 17 -8 13 -2 -3 6 1 11 10 11 8 0
18 7 21 15 4 8 11 12 18 8 6 -4 5 1 -3 10 -8 10 -11 20 -7 24 3 3 6 2 6 -4 0
-6 7 -14 16 -17 15 -6 15 -4 3 11 -12 15 -12 16 4 10 11 -4 16 -3 12 4 -8 12
14 41 26 33 5 -3 9 2 9 10 0 8 7 19 15 24 9 4 17 18 20 30 3 16 0 20 -8 16 -7
-4 -4 2 6 13 18 21 18 22 0 32 -10 6 -12 11 -5 11 6 0 12 5 12 11 0 5 -6 7
-12 3 -9 -5 -9 -2 1 9 9 11 10 17 2 17 -6 0 -11 5 -11 11 0 5 5 7 12 3 7 -4 8
-3 4 4 -4 7 -14 12 -23 12 -12 0 -13 3 -4 14 9 10 7 17 -6 27 -17 13 -17 13
-3 -5 14 -18 14 -18 -6 -6 -13 8 -20 20 -16 32 2 10 -1 18 -7 18 -6 0 -11 5
-11 11 0 5 4 8 8 5 5 -3 9 2 9 10 0 9 -6 13 -14 10 -8 -4 -11 -1 -8 5 11 17
13 59 3 65 -4 3 -5 10 -2 16 4 6 -2 8 -17 3 -18 -4 -20 -4 -10 4 12 8 12 12 2
25 -7 9 -11 27 -9 41 3 14 1 25 -3 25 -5 0 -9 -5 -9 -12 0 -6 -3 -8 -6 -5 -4
4 -1 14 7 24 9 11 10 14 2 9 -8 -4 -13 -1 -13 8 0 9 -5 16 -11 16 -8 0 -8 4 1
15 10 12 8 13 -10 10 -18 -4 -20 -2 -9 11 10 12 9 13 -4 9 -8 -4 -18 -1 -23 6
-4 7 -3 10 3 6 5 -3 10 0 10 7 0 8 -7 12 -14 9 -16 -6 -55 31 -45 43 4 5 0 3
-10 -4 -11 -9 -18 -10 -23 -2 -3 6 -12 7 -18 4 -7 -4 -9 -4 -5 1 4 4 3 14 -4
22 -9 11 -7 12 8 7 15 -5 16 -4 4 4 -10 8 -19 7 -29 -1 -12 -9 -13 -9 -7 1 4
7 2 12 -4 12 -6 0 -8 5 -5 10 3 6 2 10 -4 10 -5 0 -12 -6 -14 -12 -4 -10 -6
-10 -6 0 -1 7 -8 20 -16 28 -14 15 -20 11 -15 -11 1 -5 -10 1 -24 14 -27 26
-34 37 -14 25 7 -4 8 -3 4 5 -6 9 -11 9 -22 0 -11 -9 -14 -8 -15 7 0 18 -1 18
-9 -1 -7 -17 -9 -17 -9 -3 -1 12 -6 15 -18 11 -10 -4 -14 -2 -10 4 3 5 0 10
-8 10 -8 0 -12 -4 -9 -9 10 -16 -9 -8 -21 9 -10 14 -16 15 -27 5 -18 -14 -32
-4 -18 13 7 8 2 10 -20 7 -17 -2 -30 -9 -30 -16 -1 -6 -7 0 -15 14 -8 14 -14
20 -15 14 0 -16 -38 -25 -47 -12 -3 6 -2 8 3 5 6 -3 16 -2 23 3 8 4 -3 7 -27
6 -23 -1 -44 -5 -48 -9 -4 -3 3 -5 14 -2 16 3 19 0 15 -13 -4 -10 -8 -12 -11
-4 -2 7 -8 10 -13 6 -5 -3 -12 2 -15 11 -5 12 -9 13 -14 5 -13 -21 -90 -17
-106 5 -8 11 -14 13 -14 6 0 -7 -5 -9 -12 -4 -7 4 -22 6 -33 4 -15 -2 -17 0
-7 11 9 11 8 19 -4 36 -13 19 -13 22 6 32 11 6 19 14 19 18 -4 22 2 32 14 26
7 -5 6 0 -3 11 -14 17 -13 18 3 12 20 -7 22 3 5 22 -11 11 -10 12 1 6 8 -4 17
-2 21 6 10 16 40 21 40 6 0 -5 3 -8 6 -5 3 4 1 15 -5 26 -9 17 -7 19 16 14 20
-4 25 -2 21 10 -4 10 1 14 16 14 13 -1 20 4 18 13 -3 12 0 12 12 1 13 -10 16
-10 16 2 0 8 7 15 15 15 8 0 12 -4 9 -8 -2 -4 0 -11 6 -14 6 -4 9 -1 8 7 -4
16 31 18 51 4 11 -8 13 -8 8 0 -8 14 16 37 27 27 4 -4 4 0 1 9 -4 9 -1 19 6
24 7 4 10 3 5 -4 -3 -6 -2 -14 4 -17 6 -4 10 -3 9 2 -4 17 14 43 25 36 7 -4 7
-2 -1 8 -14 17 0 39 23 39 7 0 16 5 20 12 4 7 3 8 -4 4 -8 -4 -10 -2 -6 8 3 9
12 12 21 9 11 -4 14 -2 9 5 -6 11 5 16 26 13 4 0 5 6 2 14 -4 10 0 13 16 10
18 -4 20 -2 9 11 -10 12 -9 13 6 8 12 -5 16 -4 12 3 -8 12 11 12 30 0 6 -4 15
-2 19 4 4 8 3 9 -4 5 -7 -4 -12 -2 -12 3 0 6 10 11 23 11 18 0 19 2 7 10 -13
8 -12 10 5 11 11 1 23 1 27 0 4 0 5 6 2 14 -4 8 -11 15 -17 15 -6 0 -7 3 -4 6
4 4 12 2 20 -4 10 -8 13 -6 13 8 0 10 -4 16 -8 14 -5 -3 -6 5 -4 18 3 13 5 25
5 28 1 3 6 -2 11 -10 7 -10 10 -11 10 -2 0 7 -7 15 -15 18 -13 5 -13 9 -3 22
11 13 11 14 -2 7 -12 -6 -13 -5 -2 6 6 7 12 27 12 44 0 17 6 37 13 44 10 12 8
13 -8 7 -11 -4 -16 -4 -13 0 4 4 3 16 -3 28 -9 18 -8 19 3 6 7 -8 20 -16 28
-18 8 -2 0 10 -18 27 -32 31 -45 54 -17 31 13 -11 14 -10 9 4 -3 9 -16 16 -27
16 -20 0 -21 0 -1 16 10 8 14 13 8 10 -7 -3 -15 1 -18 10 -8 22 -8 26 4 19 6
-3 7 1 4 9 -3 9 -11 13 -18 9 -6 -3 -6 -1 2 8 14 15 16 33 3 25 -10 -7 -9 20
2 30 11 11 8 26 -3 19 -5 -3 -10 3 -10 14 0 12 -3 21 -8 21 -4 0 -12 10 -17
22 -6 12 -17 23 -25 25 -10 3 -9 1 3 -7 9 -6 17 -16 17 -21 0 -6 -7 -3 -16 5
-8 9 -20 13 -26 10 -7 -4 -8 -2 -4 5 4 7 5 20 1 29 -6 15 -8 15 -22 -3 -14
-18 -15 -19 -9 -1 4 11 0 29 -9 43 -13 20 -19 22 -31 12 -17 -14 -19 2 -2 19
15 15 3 16 -22 2 -16 -9 -18 -8 -13 6 4 12 2 15 -8 12 -7 -2 -21 4 -30 15 -12
16 -18 17 -24 7 -5 -8 -4 -11 3 -6 6 3 14 1 18 -6 4 -7 4 -10 -1 -6 -4 4 -13
4 -19 -2 -8 -6 -12 -2 -13 12 -1 12 -7 26 -14 32 -9 8 -10 6 -5 -8 5 -15 4
-17 -7 -8 -8 7 -16 9 -20 6 -9 -9 -19 35 -11 48 6 10 5 10 -7 1 -12 -10 -15
-8 -16 8 -1 10 4 19 10 19 7 0 4 5 -5 11 -10 5 -18 18 -19 27 0 11 -2 12 -6 4
-3 -7 -1 -18 4 -25 4 -7 0 -4 -9 6 -10 11 -15 24 -11 30 4 6 1 7 -7 2 -18 -11
-60 -15 -60 -5 0 4 -7 11 -16 14 -8 3 -12 2 -9 -4 3 -6 -1 -10 -10 -10 -10 0
-13 -5 -9 -12 4 -7 3 -8 -5 -4 -6 4 -9 11 -6 16 3 4 -4 10 -15 13 -12 3 -18 1
-14 -5 8 -13 -39 1 -47 14 -4 6 -9 5 -12 -3 -4 -10 -6 -10 -6 -1 -1 6 -9 12
-18 12 -16 0 -16 2 -3 11 12 9 10 10 -8 6 -18 -4 -21 -3 -12 8 8 9 6 14 -5 19
-9 3 -13 10 -10 16 4 6 -1 7 -11 3 -11 -4 -15 -3 -11 4 4 6 1 14 -5 16 -10 4
-9 8 2 16 8 6 10 11 5 11 -6 0 -17 -6 -24 -12 -10 -9 -12 -9 -7 -1 9 17 -14
28 -26 12 -6 -10 -7 -7 -3 10 5 16 4 21 -4 17 -6 -4 -11 -2 -11 4 0 8 -6 7
-21 -1 -14 -7 -19 -7 -15 0 5 7 -8 10 -37 8 -34 -1 -43 -5 -39 -16z m727 -370
c3 -5 2 -12 -3 -15 -5 -3 -9 1 -9 9 0 17 3 19 12 6z m-1121 -817 c3 -8 2 -12
-4 -9 -6 3 -10 10 -10 16 0 14 7 11 14 -7z m986 -49 c-7 -9 -15 -13 -19 -10
-3 3 1 10 9 15 21 14 24 12 10 -5z m-305 -265 c3 -5 1 -10 -4 -10 -6 0 -11 5
-11 10 0 6 2 10 4 10 3 0 8 -4 11 -10z m-624 -53 c-6 -8 -7 -18 -3 -22 4 -5 1
-5 -6 -1 -10 6 -10 11 -1 22 6 8 14 14 16 14 3 0 0 -6 -6 -13z m689 3 c0 -5
-5 -10 -11 -10 -5 0 -7 5 -4 10 3 6 8 10 11 10 2 0 4 -4 4 -10z m-856 -88 c3
-5 -1 -9 -9 -9 -8 0 -12 4 -9 9 3 4 7 8 9 8 2 0 6 -4 9 -8z m-63 -25 c-10 -9
-11 -8 -5 6 3 10 9 15 12 12 3 -3 0 -11 -7 -18z m9 -183 c0 -8 -19 -13 -24 -6
-3 5 1 9 9 9 8 0 15 -2 15 -3z m1725 -144 c3 -6 -1 -7 -9 -4 -18 7 -21 14 -7
14 6 0 13 -4 16 -10z m-155 -135 c0 -2 -6 -8 -13 -14 -10 -8 -14 -7 -14 2 0 8
6 14 14 14 7 0 13 -1 13 -2z m-1687 -70 c-3 -9 -8 -14 -10 -11 -3 3 -2 9 2 15
9 16 15 13 8 -4z m1171 -16 c-3 -5 -10 -7 -15 -3 -5 3 -7 10 -3 15 3 5 10 7
15 3 5 -3 7 -10 3 -15z m-1182 -16 c-6 -2 -9 -10 -6 -15 4 -7 2 -8 -5 -4 -13
9 -5 26 12 25 9 0 8 -2 -1 -6z m1928 -87 c0 -3 -4 -8 -10 -11 -5 -3 -10 -1
-10 4 0 6 5 11 10 11 6 0 10 -2 10 -4z"/>
<path d="M1910 1381 c0 -6 4 -13 10 -16 6 -3 7 1 4 9 -7 18 -14 21 -14 7z"/>
<path d="M1666 998 c3 -5 10 -6 15 -3 13 9 11 12 -6 12 -8 0 -12 -4 -9 -9z"/>
<path d="M2075 931 c-3 -5 -1 -12 5 -16 5 -3 10 1 10 9 0 18 -6 21 -15 7z"/>
<path d="M2215 841 c-3 -5 -1 -12 5 -16 5 -3 10 1 10 9 0 18 -6 21 -15 7z"/>
<path d="M526 815 c-9 -14 -13 -25 -8 -25 5 0 14 11 20 25 6 14 10 25 8 25 -2
0 -11 -11 -20 -25z"/>
<path d="M2270 800 c0 -5 5 -10 11 -10 5 0 7 5 4 10 -3 6 -8 10 -11 10 -2 0
-4 -4 -4 -10z"/>
<path d="M1565 640 c-3 -5 1 -10 10 -10 9 0 13 5 10 10 -3 6 -8 10 -10 10 -2
0 -7 -4 -10 -10z"/>
<path d="M370 380 c0 -5 5 -10 11 -10 5 0 7 5 4 10 -3 6 -8 10 -11 10 -2 0 -4
-4 -4 -10z"/>
<path d="M575 380 c3 -5 8 -10 11 -10 2 0 4 5 4 10 0 6 -5 10 -11 10 -5 0 -7
-4 -4 -10z"/>
<path d="M375 349 c-10 -15 3 -25 16 -12 7 7 7 13 1 17 -6 3 -14 1 -17 -5z"/>
<path d="M2136 278 c3 -5 10 -6 15 -3 13 9 11 12 -6 12 -8 0 -12 -4 -9 -9z"/>
<path d="M470 225 c0 -8 2 -15 4 -15 2 0 6 7 10 15 3 8 1 15 -4 15 -6 0 -10
-7 -10 -15z"/>
<path d="M1333 147 c0 -7 9 -14 20 -14 11 -1 18 -1 16 0 -2 2 -11 8 -20 15
-12 9 -16 9 -16 -1z"/>
<path d="M2180 136 c0 -2 7 -9 15 -16 9 -7 15 -8 15 -2 0 5 -7 12 -15 16 -8 3
-15 4 -15 2z"/>
</g>
</svg>
